<svg xmlns="http://www.w3.org/2000/svg" viewBox="0 67.03187561035156 88.33000183105469 37.0099983215332" data-asc="0.9052734375"><g fill="#d4168f"><g fill="#d4168f" transform="translate(0, 0)"><path d=""/></g><g fill="#d4168f" transform="translate(0, 58.171875)"><path d="M0 33.76L4.47 33.37Q4.79 36.06 5.94 37.78Q7.10 39.50 9.55 40.56Q11.99 41.63 15.04 41.63Q17.75 41.63 19.82 40.82Q21.90 40.01 22.91 38.61Q23.93 37.21 23.93 35.55Q23.93 33.86 22.95 32.60Q21.97 31.35 19.73 30.49Q18.29 29.93 13.35 28.75Q8.42 27.56 6.45 26.51Q3.88 25.17 2.62 23.18Q1.37 21.19 1.37 18.73Q1.37 16.02 2.91 13.66Q4.44 11.30 7.40 10.08Q10.35 8.86 13.96 8.86Q17.94 8.86 20.98 10.14Q24.02 11.43 25.66 13.92Q27.29 16.41 27.42 19.56L22.88 19.90Q22.51 16.50 20.40 14.77Q18.29 13.04 14.16 13.04Q9.86 13.04 7.90 14.61Q5.93 16.19 5.93 18.41Q5.93 20.34 7.32 21.58Q8.69 22.83 14.47 24.13Q20.24 25.44 22.39 26.42Q25.51 27.86 27.00 30.07Q28.49 32.28 28.49 35.16Q28.49 38.01 26.86 40.54Q25.22 43.07 22.16 44.47Q19.09 45.87 15.26 45.87Q10.40 45.87 7.12 44.46Q3.83 43.04 1.97 40.20Q0.10 37.35 0 33.76ZM35.03 45.26L35.03 9.47L50.90 9.47Q55.69 9.47 58.18 10.44Q60.67 11.40 62.16 13.84Q63.65 16.28 63.65 19.24Q63.65 23.05 61.18 25.66Q58.72 28.27 53.56 28.98Q55.44 29.88 56.42 30.76Q58.50 32.67 60.35 35.52L66.58 45.26L60.62 45.26L55.88 37.82Q53.81 34.59 52.47 32.89Q51.12 31.18 50.06 30.49Q49.00 29.81 47.90 29.54Q47.09 29.37 45.26 29.37L39.77 29.37L39.77 45.26L35.03 45.26M39.77 25.27L49.95 25.27Q53.20 25.27 55.03 24.60Q56.86 23.93 57.81 22.45Q58.76 20.97 58.76 19.24Q58.76 16.70 56.92 15.06Q55.08 13.43 51.10 13.43L39.77 13.43L39.77 25.27ZM68.65 35.11L72.92 34.52Q73.10 38.62 74.46 40.14Q75.83 41.65 78.25 41.65Q80.03 41.65 81.32 40.83Q82.62 40.01 83.11 38.61Q83.59 37.21 83.59 34.13L83.59 9.47L88.33 9.47L88.33 33.86Q88.33 38.35 87.24 40.82Q86.16 43.29 83.80 44.58Q81.45 45.87 78.27 45.87Q73.56 45.87 71.06 43.16Q68.55 40.45 68.65 35.11Z"/></g></g></svg>